<?xml version="1.0" encoding="utf-8"?>
<!-- Generator: Adobe Illustrator 25.2.1, SVG Export Plug-In . SVG Version: 6.00 Build 0)  -->
<svg version="1.1" id="图层_1" xmlns="http://www.w3.org/2000/svg" xmlns:xlink="http://www.w3.org/1999/xlink" x="0px" y="0px"
	 viewBox="0 0 256 256" style="enable-background:new 0 0 256 256;" xml:space="preserve">
<path d="M162.8,8.7l-109.2,10c-6.5,0.6-11.6,7.6-11.6,16.1v142c0,8,2.1,15.7,5.8,22L71.3,238c3.9,6.4,9.8,9.9,16,9.3l121.2-10
	c6.2-0.5,11-7.2,11-15.2V60.7c0-5-1.9-9.7-5-12.5l-38.4-34.7C172.2,10,167.5,8.3,162.8,8.7L162.8,8.7z M59,37
	c-1.5-1.5-0.8-4.6,1.1-4.8l103.4-9.9c3.3-0.3,6.6,0.9,9.2,3.4l20.7,19.6c0.8,0.8,0.4,2.4-0.5,2.4l-109.5,8c-3.3,0.2-6.6-1-9.2-3.7
	L59,37L59,37z M78.3,80.7c0-4.8,2.9-8.7,6.5-8.9l115.8-8.4c3.6-0.3,6.6,3.4,6.6,8.1v139.8c0,4.7-2.9,8.7-6.5,8.9l-115.1,8.8
	c-4,0.3-7.3-3.8-7.3-9V80.7z M78.3,80.7"/>
<path d="M113.7,202.6c-2,0.4-3.6-1.1-3.5-3.3l0,0l2.1-60.4c0.4-6.5,2.7-12.4,6.9-17.7c4.4-5.3,9.5-8.5,15.3-9.8l28.2-5.2
	c2-0.4,3.6,1.1,3.5,3.3c-0.1,2.2-1.8,4.3-3.8,4.7l-28.1,5.2c-3.9,0.8-7.2,3-10.2,6.5c-2.8,3.5-4.4,7.4-4.6,11.7l-2.1,60.3
	C117.4,200.2,115.7,202.3,113.7,202.6L113.7,202.6L113.7,202.6z M189.8,109.2l-9.1,1.7c-2,0.4-3.6-1.1-3.5-3.3
	c0.1-2.2,1.8-4.3,3.8-4.7l9.1-1.7c2-0.4,3.6,1.1,3.5,3.3C193.6,106.7,191.9,108.8,189.8,109.2z"/>
<path d="M142,175.6l-18.2,3.4c-1,0.2-1.8-0.6-1.8-1.7c0-1.1,0.9-2.1,1.9-2.3l13.7-2.6l-23.5-22c-0.7-0.6-0.6-1.9,0.1-2.8
	c0.7-0.9,1.9-1.1,2.6-0.5l26,24.3l8.9-1.6c3.8-0.9,7.1-2.7,10-5.7l-41.4-38.8c-0.7-0.6-0.6-1.9,0.1-2.8s1.9-1.1,2.6-0.5l0,0
	l41.4,38.8c2.4-3.5,3.7-7.3,4-11.5l0.3-9.5l-26-24.3c-0.7-0.6-0.6-1.9,0.1-2.8c0.7-0.9,1.9-1.1,2.6-0.5l23.5,22l1.5-45.1
	c0-1.1,0.9-2.1,1.9-2.3c1-0.2,1.8,0.6,1.8,1.7l-2.1,60.3c-0.3,5.7-2.4,11-6.1,15.8c-0.1,0.2-0.2,0.4-0.3,0.5l0,0
	c-3.9,4.7-8.6,7.7-14,8.9L142,175.6L142,175.6z M105.3,182.4l-9.2,1.7c-1,0.2-1.8-0.6-1.8-1.7c0-1.1,0.9-2.1,1.9-2.3l9.2-1.7
	c1-0.2,1.8,0.6,1.8,1.7C107.1,181.1,106.3,182.2,105.3,182.4z"/>
</svg>
