<svg width="100" height="100" viewBox="0 0 100 100" xmlns="http://www.w3.org/2000/svg" xmlns:xlink="http://www.w3.org/1999/xlink">
    <g id="logo">
        <path id="path1" fill="#000000" stroke="none" d="M 63.265209 1.666008 L 18.730764 5.744247 C 16.079905 5.988945 14 8.843719 14 12.310226 L 14 70.221313 C 14 73.483917 14.856431 76.624161 16.365383 79.193459 L 25.949261 95.180176 C 27.539774 97.790253 29.94594 99.217644 32.474453 98.972946 L 81.902794 94.894707 C 84.431305 94.690788 86.388863 91.958366 86.388863 88.69577 L 86.388863 22.872879 C 86.388863 20.833755 85.613998 18.916985 84.349739 17.775078 L 68.689278 3.623566 C 67.098755 2.196175 65.181984 1.502876 63.265209 1.666008 L 63.265209 1.666008 Z M 20.933018 13.207443 C 20.321281 12.595703 20.606758 11.331444 21.381624 11.249878 L 63.550686 7.212418 C 64.896507 7.090073 66.242332 7.57946 67.302673 8.599022 L 75.744637 16.592384 C 76.0709 16.918648 75.907768 17.571159 75.540726 17.571159 L 30.883938 20.833755 C 29.538116 20.915321 28.192297 20.425934 27.13195 19.324806 L 20.933018 13.207443 L 20.933018 13.207443 Z M 28.804033 31.029373 C 28.804033 29.071815 29.986721 27.4813 31.454893 27.399734 L 78.680977 23.974007 C 80.149147 23.851662 81.37262 25.360611 81.37262 27.27739 L 81.37262 84.291267 C 81.37262 86.208038 80.189926 87.83934 78.721756 87.920898 L 31.781151 91.509758 C 30.149853 91.632111 28.804033 89.960022 28.804033 87.83934 L 28.804033 31.029373 Z"/>
        <path id="path2" fill="#000000" stroke="none" d="M 43.24102 80.743195 C 42.425373 80.906319 41.772854 80.294586 41.813633 79.397369 L 41.813633 79.397369 L 42.670067 54.764763 C 42.833195 52.113903 43.771194 49.707741 45.484055 47.546268 C 47.278484 45.384796 49.358391 44.079758 51.723774 43.549587 L 63.224426 41.428902 C 64.040077 41.265774 64.692596 41.87751 64.65181 42.774723 C 64.611031 43.671936 63.917725 44.52837 63.102077 44.691498 L 51.642208 46.812183 C 50.051689 47.138443 48.705872 48.035656 47.482395 49.463043 C 46.340488 50.89043 45.687969 52.480949 45.606403 54.234596 L 44.749973 78.826416 C 44.749973 79.764412 44.056671 80.620842 43.24102 80.743195 L 43.24102 80.743195 L 43.24102 80.743195 Z M 74.276474 42.652374 L 70.565269 43.345673 C 69.749619 43.508808 69.097099 42.897072 69.137878 41.999859 C 69.178665 41.102638 69.871964 40.246212 70.687614 40.083076 L 74.398819 39.389778 C 75.21447 39.22665 75.866989 39.838387 75.82621 40.7356 C 75.82621 41.632813 75.132904 42.489246 74.276474 42.652374 Z"/>
        <path id="path3" fill="#000000" stroke="none" d="M 54.782455 69.731926 L 47.36005 71.11853 C 46.952225 71.200096 46.625965 70.873833 46.625965 70.425232 C 46.625965 69.976624 46.993008 69.568794 47.400833 69.487228 L 52.988033 68.426888 L 43.404152 59.454746 C 43.118675 59.210052 43.159458 58.679882 43.444931 58.31284 C 43.730412 57.945793 44.219799 57.864231 44.50528 58.108929 L 55.108719 68.019058 L 58.738354 67.366547 C 60.28809 66.999496 61.633911 66.265419 62.816601 65.041946 L 45.932667 49.218353 C 45.647186 48.973656 45.687969 48.443481 45.973446 48.076443 C 46.258923 47.7094 46.748314 47.627831 47.033791 47.872528 L 47.033791 47.872528 L 63.917725 63.696125 C 64.896507 62.268738 65.426682 60.719002 65.549026 59.006142 L 65.671371 55.131809 L 55.067932 45.221668 C 54.782455 44.976971 54.823242 44.446804 55.108719 44.079758 C 55.394196 43.712719 55.883583 43.631157 56.16906 43.875847 L 65.752937 52.847988 L 66.36467 34.455101 C 66.36467 34.006493 66.73172 33.598671 67.139542 33.517105 C 67.547371 33.435539 67.873627 33.761795 67.873627 34.210403 L 67.017197 58.802231 C 66.894844 61.126827 66.038414 63.2883 64.529465 65.245857 C 64.488686 65.327423 64.447899 65.408981 64.40712 65.449768 L 64.40712 65.449768 C 62.816601 67.366547 60.899826 68.590019 58.697575 69.079407 L 54.782455 69.731926 L 54.782455 69.731926 Z M 39.815296 72.505127 L 36.063309 73.198441 C 35.655483 73.279999 35.329227 72.953743 35.329227 72.505127 C 35.329227 72.056526 35.696266 71.648705 36.104092 71.567139 L 39.856079 70.873833 C 40.263905 70.792267 40.59016 71.11853 40.59016 71.567139 C 40.549377 71.97496 40.223122 72.423569 39.815296 72.505127 Z"/>
    </g>
</svg>
